<svg width="70" height="21" viewBox="0 0 70 21" fill="none" xmlns="http://www.w3.org/2000/svg">
<path d="M26.008 18.144C24.76 18.144 23.68 17.92 22.768 17.472C21.856 17.008 21.152 16.368 20.656 15.552C20.16 14.72 19.912 13.744 19.912 12.624C19.912 11.184 20.224 9.904 20.848 8.784C21.472 7.664 22.32 6.784 23.392 6.144C24.48 5.488 25.712 5.16 27.088 5.16C28.24 5.16 29.24 5.384 30.088 5.832C30.936 6.264 31.592 6.888 32.056 7.704C32.536 8.52 32.776 9.504 32.776 10.656C32.776 10.944 32.76 11.24 32.728 11.544C32.696 11.832 32.656 12.104 32.608 12.36H21.592L21.88 10.68H31.504L30.568 11.256C30.712 10.36 30.648 9.608 30.376 9C30.104 8.376 29.672 7.904 29.08 7.584C28.504 7.248 27.808 7.08 26.992 7.08C26.032 7.08 25.184 7.312 24.448 7.776C23.728 8.224 23.168 8.856 22.768 9.672C22.368 10.472 22.168 11.416 22.168 12.504C22.168 13.656 22.496 14.552 23.152 15.192C23.824 15.816 24.84 16.128 26.2 16.128C27 16.128 27.744 16 28.432 15.744C29.12 15.472 29.688 15.112 30.136 14.664L31.12 16.32C30.512 16.912 29.752 17.368 28.84 17.688C27.928 17.992 26.984 18.144 26.008 18.144ZM32.6879 18L35.2079 5.28H37.4159L36.6959 8.976L36.4559 8.064C37.0479 6.992 37.7999 6.24 38.7119 5.808C39.6239 5.376 40.7519 5.16 42.0959 5.16L41.6639 7.392C41.5679 7.376 41.4719 7.368 41.3759 7.368C41.2799 7.368 41.1759 7.368 41.0639 7.368C39.7999 7.368 38.7519 7.712 37.9199 8.4C37.1039 9.088 36.5519 10.168 36.2639 11.64L34.9919 18H32.6879ZM40.4476 18L43.9996 0.191999H46.3036L44.5996 8.616L43.7596 11.52L43.3996 14.256L42.6316 18H40.4476ZM47.7676 18.144C46.6796 18.144 45.7436 17.952 44.9596 17.568C44.1916 17.168 43.5996 16.6 43.1836 15.864C42.7676 15.112 42.5596 14.208 42.5596 13.152C42.5596 11.968 42.7116 10.888 43.0156 9.912C43.3196 8.92 43.7676 8.072 44.3596 7.368C44.9676 6.664 45.6876 6.12 46.5196 5.736C47.3516 5.352 48.2956 5.16 49.3516 5.16C50.4396 5.16 51.3996 5.376 52.2316 5.808C53.0796 6.24 53.7436 6.872 54.2236 7.704C54.7196 8.52 54.9676 9.496 54.9676 10.632C54.9676 11.72 54.7836 12.72 54.4156 13.632C54.0636 14.544 53.5596 15.336 52.9036 16.008C52.2636 16.68 51.5036 17.208 50.6236 17.592C49.7436 17.96 48.7916 18.144 47.7676 18.144ZM47.6716 16.128C48.6316 16.128 49.4796 15.896 50.2156 15.432C50.9676 14.968 51.5596 14.336 51.9916 13.536C52.4236 12.72 52.6396 11.792 52.6396 10.752C52.6396 9.632 52.3116 8.76 51.6556 8.136C50.9996 7.496 50.0636 7.176 48.8476 7.176C47.9036 7.176 47.0476 7.408 46.2796 7.872C45.5276 8.32 44.9356 8.952 44.5036 9.768C44.0876 10.568 43.8796 11.496 43.8796 12.552C43.8796 13.656 44.2076 14.528 44.8636 15.168C45.5196 15.808 46.4556 16.128 47.6716 16.128ZM60.9589 18.144C59.7109 18.144 58.6309 17.92 57.7189 17.472C56.8069 17.008 56.1029 16.368 55.6069 15.552C55.1109 14.72 54.8629 13.744 54.8629 12.624C54.8629 11.184 55.1749 9.904 55.7989 8.784C56.4229 7.664 57.2709 6.784 58.3429 6.144C59.4309 5.488 60.6629 5.16 62.0389 5.16C63.1909 5.16 64.1909 5.384 65.0389 5.832C65.8869 6.264 66.5429 6.888 67.0069 7.704C67.4869 8.52 67.7269 9.504 67.7269 10.656C67.7269 10.944 67.7109 11.24 67.6789 11.544C67.6469 11.832 67.6069 12.104 67.5589 12.36H56.5429L56.8309 10.68H66.4549L65.5189 11.256C65.6629 10.36 65.5989 9.608 65.3269 9C65.0549 8.376 64.6229 7.904 64.0309 7.584C63.4549 7.248 62.7589 7.08 61.9429 7.08C60.9829 7.08 60.1349 7.312 59.3989 7.776C58.6789 8.224 58.1189 8.856 57.7189 9.672C57.3189 10.472 57.1189 11.416 57.1189 12.504C57.1189 13.656 57.4469 14.552 58.1029 15.192C58.7749 15.816 59.7909 16.128 61.1509 16.128C61.9509 16.128 62.6949 16 63.3829 15.744C64.0709 15.472 64.6389 15.112 65.0869 14.664L66.0709 16.32C65.4629 16.912 64.7029 17.368 63.7909 17.688C62.8789 17.992 61.9349 18.144 60.9589 18.144Z" fill="#171717"/>
<path d="M8.60287 8.59052L1.17076 10.8326C1.17076 10.8326 -0.115485 11.0271 0.00840825 11.7952L0.000148675 16.4687C0.000148675 16.4687 0.149572 17.2195 1.26311 16.8306L12.6718 13.1468C12.6718 13.1468 13.4114 12.7316 13.3296 12.016C13.2478 11.3004 12.5172 8.07242 8.60212 8.58977L8.60287 8.59052Z" fill="#0044FB"/>
<path d="M13.3296 12.0738L13.3048 5.09372C13.3018 4.31131 12.8002 3.74741 12.1109 3.43129C12.1012 3.42678 12.0186 3.39149 12.0088 3.38924C11.9653 3.37798 11.3901 3.0919 11.3503 3.07162L5.51604 0.0996765C5.51604 0.0996765 4.02782 -0.487504 3.87539 1.18844V5.60731C3.87539 5.60731 3.84461 6.52938 5.28928 7.08878C5.55659 7.1924 5.8224 7.29977 6.0822 7.41991L10.9246 9.66877C10.9246 9.66877 13.1021 10.5653 13.3296 12.0738Z" fill="#003BD8"/>
<path d="M4.55343 20.015C5.4048 20.015 6.09497 19.3248 6.09497 18.4735C6.09497 17.6221 5.4048 16.9319 4.55343 16.9319C3.70206 16.9319 3.01189 17.6221 3.01189 18.4735C3.01189 19.3248 3.70206 20.015 4.55343 20.015Z" fill="#0044FB"/>
<path d="M10.3028 19.1718C11.4258 19.1718 12.3362 18.2614 12.3362 17.1384C12.3362 16.0154 11.4258 15.1051 10.3028 15.1051C9.17985 15.1051 8.26949 16.0154 8.26949 17.1384C8.26949 18.2614 9.17985 19.1718 10.3028 19.1718Z" fill="#0044FB"/>
</svg>
