<svg width="70" height="21" viewBox="0 0 70 21" fill="none" xmlns="http://www.w3.org/2000/svg">
<path d="M26.128 18.168C24.848 18.168 23.736 17.936 22.792 17.472C21.848 16.992 21.112 16.336 20.584 15.504C20.072 14.656 19.816 13.664 19.816 12.528C19.816 11.072 20.136 9.784 20.776 8.664C21.416 7.544 22.288 6.664 23.392 6.024C24.512 5.368 25.784 5.04 27.208 5.04C28.408 5.04 29.448 5.264 30.328 5.712C31.208 6.16 31.888 6.808 32.368 7.656C32.864 8.488 33.112 9.488 33.112 10.656C33.112 10.96 33.096 11.272 33.064 11.592C33.032 11.912 32.984 12.208 32.92 12.48H22.048L22.384 10.488H31.504L30.28 11.16C30.408 10.344 30.352 9.664 30.112 9.12C29.872 8.576 29.488 8.16 28.96 7.872C28.432 7.584 27.8 7.44 27.064 7.44C26.184 7.44 25.416 7.648 24.76 8.064C24.12 8.464 23.624 9.04 23.272 9.792C22.92 10.528 22.744 11.392 22.744 12.384C22.744 13.424 23.04 14.224 23.632 14.784C24.24 15.344 25.176 15.624 26.44 15.624C27.16 15.624 27.848 15.512 28.504 15.288C29.16 15.048 29.704 14.72 30.136 14.304L31.384 16.392C30.712 16.984 29.912 17.432 28.984 17.736C28.072 18.024 27.12 18.168 26.128 18.168ZM32.6354 18L35.1794 5.184H38.0354L37.3154 8.832L37.0514 7.776C37.6434 6.736 38.3954 6.024 39.3074 5.64C40.2194 5.24 41.3314 5.04 42.6434 5.04L42.0914 7.896C41.9634 7.864 41.8434 7.848 41.7314 7.848C41.6194 7.832 41.4914 7.824 41.3474 7.824C40.1794 7.824 39.2114 8.136 38.4434 8.76C37.6754 9.368 37.1634 10.344 36.9074 11.688L35.6354 18H32.6354ZM40.6763 18L44.2283 0.191999H47.2283L45.6443 8.16L44.7083 11.496L44.2283 14.52L43.5323 18H40.6763ZM48.4283 18.168C47.3723 18.168 46.4603 17.984 45.6923 17.616C44.9243 17.232 44.3323 16.672 43.9163 15.936C43.5003 15.2 43.2923 14.288 43.2923 13.2C43.2923 12 43.4363 10.904 43.7243 9.912C44.0283 8.904 44.4683 8.04 45.0443 7.32C45.6363 6.584 46.3403 6.024 47.1563 5.64C47.9883 5.24 48.9323 5.04 49.9883 5.04C51.0443 5.04 51.9963 5.264 52.8443 5.712C53.6923 6.144 54.3643 6.784 54.8603 7.632C55.3723 8.464 55.6283 9.472 55.6283 10.656C55.6283 11.744 55.4443 12.744 55.0763 13.656C54.7243 14.568 54.2203 15.36 53.5643 16.032C52.9083 16.704 52.1403 17.232 51.2603 17.616C50.3963 17.984 49.4523 18.168 48.4283 18.168ZM48.1883 15.6C49.0523 15.6 49.8123 15.4 50.4683 15C51.1243 14.584 51.6443 14.016 52.0283 13.296C52.4123 12.576 52.6043 11.744 52.6043 10.8C52.6043 9.808 52.3083 9.024 51.7163 8.448C51.1243 7.872 50.2923 7.584 49.2203 7.584C48.3723 7.584 47.6123 7.792 46.9403 8.208C46.2843 8.608 45.7643 9.168 45.3803 9.888C44.9963 10.608 44.8043 11.44 44.8043 12.384C44.8043 13.376 45.1003 14.16 45.6923 14.736C46.2843 15.312 47.1163 15.6 48.1883 15.6ZM61.6414 18.168C60.3614 18.168 59.2494 17.936 58.3054 17.472C57.3614 16.992 56.6254 16.336 56.0974 15.504C55.5854 14.656 55.3294 13.664 55.3294 12.528C55.3294 11.072 55.6494 9.784 56.2894 8.664C56.9294 7.544 57.8014 6.664 58.9054 6.024C60.0254 5.368 61.2974 5.04 62.7214 5.04C63.9214 5.04 64.9614 5.264 65.8414 5.712C66.7214 6.16 67.4014 6.808 67.8814 7.656C68.3774 8.488 68.6254 9.488 68.6254 10.656C68.6254 10.96 68.6094 11.272 68.5774 11.592C68.5454 11.912 68.4974 12.208 68.4334 12.48H57.5614L57.8974 10.488H67.0174L65.7934 11.16C65.9214 10.344 65.8654 9.664 65.6254 9.12C65.3854 8.576 65.0014 8.16 64.4734 7.872C63.9454 7.584 63.3134 7.44 62.5774 7.44C61.6974 7.44 60.9294 7.648 60.2734 8.064C59.6334 8.464 59.1374 9.04 58.7854 9.792C58.4334 10.528 58.2574 11.392 58.2574 12.384C58.2574 13.424 58.5534 14.224 59.1454 14.784C59.7534 15.344 60.6894 15.624 61.9534 15.624C62.6734 15.624 63.3614 15.512 64.0174 15.288C64.6734 15.048 65.2174 14.72 65.6494 14.304L66.8974 16.392C66.2254 16.984 65.4254 17.432 64.4974 17.736C63.5854 18.024 62.6334 18.168 61.6414 18.168Z" fill="white"/>
<path d="M8.60287 8.59052L1.17076 10.8326C1.17076 10.8326 -0.115485 11.0271 0.00840825 11.7952L0.000148675 16.4687C0.000148675 16.4687 0.149572 17.2195 1.26311 16.8306L12.6718 13.1468C12.6718 13.1468 13.4114 12.7316 13.3296 12.016C13.2478 11.3004 12.5172 8.07242 8.60212 8.58977L8.60287 8.59052Z" fill="#0044FB"/>
<path d="M13.3296 12.0738L13.3048 5.09372C13.3018 4.31131 12.8002 3.74741 12.1109 3.43129C12.1012 3.42678 12.0186 3.39149 12.0088 3.38924C11.9653 3.37798 11.3901 3.0919 11.3503 3.07162L5.51604 0.0996765C5.51604 0.0996765 4.02782 -0.487504 3.87539 1.18844V5.60731C3.87539 5.60731 3.84461 6.52938 5.28928 7.08878C5.55659 7.1924 5.8224 7.29977 6.0822 7.41991L10.9246 9.66877C10.9246 9.66877 13.1021 10.5653 13.3296 12.0738Z" fill="#003BD8"/>
<path d="M4.55343 20.015C5.4048 20.015 6.09497 19.3248 6.09497 18.4735C6.09497 17.6221 5.4048 16.9319 4.55343 16.9319C3.70206 16.9319 3.01189 17.6221 3.01189 18.4735C3.01189 19.3248 3.70206 20.015 4.55343 20.015Z" fill="#0044FB"/>
<path d="M10.3028 19.1718C11.4258 19.1718 12.3362 18.2614 12.3362 17.1384C12.3362 16.0154 11.4258 15.1051 10.3028 15.1051C9.17985 15.1051 8.26949 16.0154 8.26949 17.1384C8.26949 18.2614 9.17985 19.1718 10.3028 19.1718Z" fill="#0044FB"/>
</svg>
