<svg width="14" height="21" viewBox="0 0 14 21" fill="none" xmlns="http://www.w3.org/2000/svg">
<path d="M8.60287 8.59052L1.17076 10.8326C1.17076 10.8326 -0.115485 11.0271 0.00840825 11.7952L0.000148675 16.4687C0.000148675 16.4687 0.149572 17.2195 1.26311 16.8306L12.6718 13.1468C12.6718 13.1468 13.4114 12.7316 13.3296 12.016C13.2478 11.3004 12.5172 8.07242 8.60212 8.58977L8.60287 8.59052Z" fill="#0044FB"/>
<path d="M13.3296 12.0738L13.3048 5.09372C13.3018 4.31131 12.8002 3.74741 12.1109 3.43129C12.1012 3.42678 12.0186 3.39149 12.0088 3.38924C11.9653 3.37798 11.3901 3.0919 11.3503 3.07162L5.51604 0.0996765C5.51604 0.0996765 4.02782 -0.487504 3.87539 1.18844V5.60731C3.87539 5.60731 3.84461 6.52938 5.28928 7.08878C5.55659 7.1924 5.8224 7.29977 6.0822 7.41991L10.9246 9.66877C10.9246 9.66877 13.1021 10.5653 13.3296 12.0738Z" fill="#003BD8"/>
<path d="M4.55343 20.015C5.4048 20.015 6.09497 19.3248 6.09497 18.4735C6.09497 17.6221 5.4048 16.9319 4.55343 16.9319C3.70206 16.9319 3.01189 17.6221 3.01189 18.4735C3.01189 19.3248 3.70206 20.015 4.55343 20.015Z" fill="#0044FB"/>
<path d="M10.3028 19.1718C11.4258 19.1718 12.3362 18.2614 12.3362 17.1384C12.3362 16.0154 11.4258 15.1051 10.3028 15.1051C9.17985 15.1051 8.26949 16.0154 8.26949 17.1384C8.26949 18.2614 9.17985 19.1718 10.3028 19.1718Z" fill="#0044FB"/>
</svg>
